<svg xmlns="http://www.w3.org/2000/svg" version="1.1" xmlns:xlink="http://www.w3.org/1999/xlink" xmlns:svgjs="http://svgjs.dev/svgjs" viewBox="0 0 800 800" opacity="0.29"><defs><linearGradient x1="50%" y1="0%" x2="50%" y2="100%" id="uundulate-grad"><stop stop-color="hsl(184, 74%, 44%)" stop-opacity="1" offset="45%"></stop><stop stop-color="hsl(332, 87%, 70%)" stop-opacity="1" offset="100%"></stop></linearGradient></defs><g stroke-width="4" stroke="url(#uundulate-grad)" fill="none"><path d="M887.4300528525598 27.74493989834025C1016.4491289780383 295.3794044019842 1268.6881238709184 798.3816726977909 1161.7118916946233 1075.564309859261C1054.7356595183285 1352.7469470207316 693.2789348368974 1378.7721557019327 373.9441384063455 1358.2215982734006C54.60934197579343 1337.671040844868 -276.41722182761794 1209.863336272948 -371.09513117202783 976.9216342023028C-465.77304051643785 743.9799321316577 -121.52609519672762 557.4572275877633 -80.50982644682404 240.10142833430518C-39.493557696920334 -77.25437091915319 -303.99415632648004 -452.80650469502075 -174.21704117248999 -546.386202214298C-44.43992601849982 -639.9658997335753 321.2438483704407 -328.69177436502787 542.4203262923265 -209.08111975822817C763.5968042142122 -89.47046515142836 758.4109767270813 -239.8895246053039 887.4300528525598 27.74493989834025C1016.4491289780383 295.3794044019842 1268.6881238709184 798.3816726977909 1161.7118916946233 1075.564309859261 "></path><path d="M864.2191139402169 45.47137569140648C987.0944245359108 300.3613418853531 1227.3220387196059 779.4111212146929 1125.4399128374203 1043.394585177998C1023.5577869552346 1307.378049141303 679.3132872586336 1332.1639621710187 375.184909705727 1312.5920027152733C71.05653215282041 1293.020043259528 -244.20686194566662 1171.2984198576996 -334.37629941653324 949.4491797904186C-424.5457368873998 727.5999397231376 -96.69150324958059 549.9592687289523 -57.62839015443433 247.71565039232541C-18.565277059287837 -54.527967944301395 -270.4706090874401 -412.19666677846095 -146.87335655983043 -501.3201882253917C-23.27610403222093 -590.4437096723225 324.99415729057955 -293.9921617022774 535.6384219780898 -180.07725255294417C746.2826866656001 -66.16234340361109 741.3438033445232 -209.41859050254016 864.2191139402169 45.47137569140648C987.0944245359108 300.3613418853531 1227.3220387196059 779.4111212146929 1125.4399128374203 1043.394585177998 "></path><path d="M841.0081445102958 63.19790303720731C957.7396895762049 305.34337092145665 1185.9559230507155 760.4406612843293 1089.1679034626393 1011.224952049469C992.3798838745627 1262.009242814609 665.3476091627917 1285.5558601928387 376.42565048753045 1266.9624987098805C87.50369181226915 1248.3691372269227 -211.99653258129342 1132.7335949951857 -297.6574981786167 921.9768169312688C-383.31846377594 711.2200388673518 -71.8569418200118 542.4614014228757 -34.746984379622745 255.32996400308025C2.3629730607663078 -31.801473416715226 -236.94709236597822 -371.58673730916684 -119.5297024647491 -456.25408268375105C-2.112312563519936 -540.9214280583353 328.74443569314064 -259.2924574867924 528.8564871462754 -151.07329379492592C728.9685385994098 -42.85413010305945 724.2765994443869 -178.94756484704203 841.0081445102958 63.19790303720731C957.7396895762049 305.34337092145665 1185.9559230507155 760.4406612843293 1089.1679034626393 1011.224952049469 "></path><path d="M817.7971750803749 80.9242777951174C928.3849546164993 310.32524736966934 1144.589807381825 741.4700487660753 1052.8958940878579 979.0551663330498C961.2019807938909 1216.6402839000243 651.3819310669501 1238.9476056267683 377.666391269334 1221.3328421165977C103.95085147171812 1203.718078606427 -179.78620321692028 1094.1686175447815 -260.9386969407002 894.5043014842283C-342.09119066448017 694.8399854236754 -47.02238039044289 534.9633815289085 -11.865578604811162 262.9441250259447C23.291223180820566 -9.075131477019681 -203.4235756445164 -330.9769604277633 -92.18604836966779 -411.188129730001C19.05147890518083 -491.3992990322387 332.4947140957015 -224.59290585919803 522.0745523144606 -122.06948762479828C711.6543905332196 -19.546069390398316 707.2093955442506 -148.47669177943453 817.7971750803749 80.9242777951174C928.3849546164993 310.32524736966934 1144.589807381825 741.4700487660753 1052.8958940878579 979.0551663330498 "></path><path d="M794.586236168032 98.65068307060574C899.0302501743718 315.3071543354604 1103.2237222305127 722.4994667653991 1016.6239152306548 946.8854111342084C930.0241082307971 1171.2713555030177 637.4162834886863 1192.339381578276 378.90716256871565 1175.7032160408924C120.398041648745 1159.067050503509 -147.57584333496897 1055.603670611955 -224.2198651852056 867.031816554766C-300.8638870354422 678.459962497577 -22.187788443295858 527.4653921525196 11.015857687578546 270.5583165663868C44.21950381845295 13.651240980253988 -169.9000284054764 -290.3671530287817 -64.84236375700823 -366.1221462586728C40.21530089145995 -441.87713948856396 336.2450230158405 -189.89332371402554 515.2926480002241 -93.06565093709241C694.3402729846077 3.762021839840827 690.1422221616924 -118.00578819424891 794.586236168032 98.65068307060574C899.0302501743718 315.3071543354604 1103.2237222305127 722.4994667653991 1016.6239152306548 946.8854111342084 "></path><path d="M771.3752667381109 116.3771493812502C869.6755152146661 320.28912233640756 1061.8576065616223 703.5289457998792 980.3519058558736 914.7157169705233C898.8462051501251 1125.9024881411674 623.4506053928444 1145.7312185649398 380.1479033505192 1130.0736510003437C136.84520130819374 1114.4160834357474 -115.36551397059577 1017.0387847142847 -187.50106394728908 839.5593926604599C-259.6366139239824 662.0800006066349 2.6467729862729357 519.967463811287 33.89726346239013 278.1725691419854C65.14775393850721 36.37767447268391 -136.3765116840146 -249.7572845946438 -37.49870966192691 -321.0561017521884C61.379092360160826 -392.354918909733 339.99530141840137 -155.19368053369692 508.51071316840944 -64.0617532142303C677.0261249184177 27.070174105236106 673.0750182615561 -87.53482357390715 771.3752667381109 116.3771493812502C869.6755152146661 320.28912233640756 1061.8576065616223 703.5289457998792 980.3519058558736 914.7157169705233 "></path><path d="M748.1643583433463 134.10358517431655C840.3208412901167 325.2710598197766 1020.4915519278879 684.5583943167812 944.0799575162487 882.5459922892601C867.6683631046094 1080.533590261739 609.4849883321588 1099.1230250340254 381.38870516747886 1084.4440554422167C153.29242200279884 1069.7650858504076 -83.15512357106638 978.4738682990364 -150.7822016742163 812.0869382485757C-218.4092797773663 645.7000081981148 27.481395450998093 512.4695049524757 56.77873027235785 285.7867912000057C86.07606509371772 59.1040774475357 -102.85293392739646 -209.147446678084 -10.154994531689226 -275.9900877632821C82.54294486401795 -342.83272884848014 343.74564085611837 -120.49406787094631 501.72883937175095 -35.057886008946525C659.7120378873838 50.37829585305337 656.0078753965759 -57.0638894711434 748.1643583433463 134.10358517431655C840.3208412901167 325.2710598197766 1020.4915519278879 684.5583943167812 944.0799575162487 882.5459922892601 "></path><path d="M724.9534194310036 151.82999044980488C810.966136847989 330.25296678556765 979.1254667765756 665.5878123161053 907.8079786590458 850.376237090419C836.4904905415156 1035.1646618647324 595.519340753895 1052.5148009855334 382.6294764668605 1038.8144293665116C169.73961217982583 1025.1140577474898 -50.944763689115064 939.9089213662103 -114.06336991872172 784.6144533191134C-177.18197614832832 629.3199852720168 52.315987398145126 504.97151557608686 79.66016656474756 293.40098274044817C107.00434573134999 81.83044990480937 -69.32938668835652 -168.53763927910234 17.18869008097022 -230.92410429195388C103.70676685029696 -293.3105693048054 347.49594977625736 -85.79448572577382 494.94693505751457 -6.0540493212406545C642.3979203387717 73.68638708329263 638.9407020140179 -26.592985885957773 724.9534194310036 151.82999044980488C810.966136847989 330.25296678556765 979.1254667765756 665.5878123161053 907.8079786590458 850.376237090419 "></path><path d="M701.7424500010825 169.55642624287134C781.6114018882834 335.2349042689367 937.7593511076852 646.6172608330075 871.5359692842644 818.2065124091557C805.312587460844 989.7957639853039 581.5536626580533 1005.906607454619 383.87021724866395 993.1848338083846C186.18677183927468 980.4630601621504 -18.73443432474187 901.3440049509618 -77.3445686808052 757.1419989072292C-135.95470303686852 612.9399928634966 77.15054882771403 497.4735567172761 102.54157233955914 301.01520479846863C127.93259585140424 104.55685287966116 -35.80586996689465 -127.9278013625426 44.532344176051595 -185.85809030304756C124.87055831899784 -243.78837924355258 351.2462281788182 -51.094873063023215 488.16500022569994 22.94981788404334C625.0837722725814 96.9945088311099 621.8734981138814 3.877948216805976 701.7424500010825 169.55642624287134C781.6114018882834 335.2349042689367 937.7593511076852 646.6172608330075 871.5359692842644 818.2065124091557 "></path><path d="M678.5314805711614 187.28283151835944C752.2566669285777 340.21681123472763 896.3932354387948 627.6466788323314 835.2639599094834 786.0367572103144C774.1346843801721 944.4268355882973 567.5879845622115 959.2983834061267 385.1109580304675 947.5552077326797C202.63393149872354 935.8120320592325 13.475895039631268 862.7790580181354 -40.62576744288867 729.6695139777669C-94.72742992540867 596.5599699373981 101.98511025728288 489.975567340887 125.42297811437072 308.62939633891096C148.8608459714585 127.28322533693472 -2.2823532454327733 -87.31799396356098 71.87599827113297 -140.79210683171942C146.03434978769872 -194.26621969987787 354.9965065813791 -16.395290917850787 481.3830653938852 51.9536545717491C607.7696242063913 120.30260006134904 604.8062942137451 34.348851801991486 678.5314805711614 187.28283151835944C752.2566669285777 340.21681123472763 896.3932354387948 627.6466788323314 835.2639599094834 786.0367572103144 "></path><path d="M655.3205416588185 205.0092673114259C722.90196248645 345.19874871809657 855.0271502874825 608.6761273492334 798.9919810522804 753.8670325290514C742.9568118170782 899.0579377088691 553.6223369839478 912.6901898752126 386.35172932984915 901.9256121745527C219.0811216757504 891.1610344738929 45.68625492158259 824.2141416028871 -3.906935687394082 702.1970595658827C-53.500126296370695 580.179977528878 126.81970220442986 482.4776084820761 148.30441440676032 316.2436183969314C169.78912660909089 150.00962831178663 31.24119399360717 -46.70815604700118 99.21968288379247 -95.7260928428131C167.19817177397772 -144.74402963862502 358.7468155015181 18.304321744899823 474.6011610796487 80.95752177703298C590.4555066577793 143.6107218091663 587.7391208311869 64.81978590475524 655.3205416588185 205.0092673114259C722.90196248645 345.19874871809657 855.0271502874825 608.6761273492334 798.9919810522804 753.8670325290514 "></path><path d="M632.1096027464756 222.73570310449236C693.5472580443226 350.1806862014656 813.6610651361702 589.7055758661355 762.7200021950773 721.6973078477881C711.7789392539844 853.6890398294406 539.656689405684 866.0819963442984 387.5925006292307 856.2960166164257C235.5283118527774 846.510036888553 77.89661480353391 785.6492251876389 32.811896068100566 674.7246051539983C-12.272822667332719 563.7999851203579 151.6542941515769 474.97964962326523 171.18585069915002 323.85784045495177C190.71740724672327 172.7360312866383 64.76474123264717 -6.0983181304414416 126.56336749645197 -50.66007885390678C188.36199376025672 -95.22183957737218 362.49712442165696 53.00393440765038 467.8192567654121 109.96138898231698C573.1413891091672 166.91884355698357 570.6719474486288 95.29072000751898 632.1096027464756 222.73570310449236C693.5472580443226 350.1806862014656 813.6610651361702 589.7055758661355 762.7200021950773 721.6973078477881 "></path><path d="M608.8986333165547 240.4621388975587C664.1925230846168 355.16262368483467 772.2949494672798 570.7350243830376 726.4479928202961 689.5275831665249C680.6010361733127 808.3201419500122 525.6910113098422 819.4738028133843 388.8332414110341 810.666421058299C251.97547151222625 801.8590393032136 110.10694416790705 747.0843087723906 69.53069730601709 647.2521507421142C28.954450444127076 547.4199927118377 176.48885558114574 467.48169076445424 194.0672564739616 331.47206251297234C211.64565736677747 195.46243426149022 98.28825795410899 34.511519786118356 153.9070215915333 -5.594064865000519C209.5257852289576 -45.69964951611934 366.24740282421794 87.70354707040099 461.03732193359747 138.96525618760086C555.827241042977 190.22696530480084 553.6047435484925 125.76165411028273 608.8986333165547 240.4621388975587C664.1925230846168 355.16262368483467 772.2949494672798 570.7350243830376 726.4479928202961 689.5275831665249 "></path><path d="M585.6876638866336 258.18857469062505C634.8377881249112 360.14456116820384 730.9288337983893 551.7644728999396 690.1759834455149 657.3578584852617C649.4231330926407 762.9512440705837 511.72533321400033 772.8656092824699 390.0739821928378 765.0368255001717C268.422631171675 757.2080417178736 142.31727353228024 708.5193923571424 106.24949854393361 619.77969633023C70.18172355558693 531.0400003033175 201.3234170107146 459.9837319056435 216.9486622487732 339.0862845709927C232.57390748683173 218.1888372363419 131.81177467557086 75.1213577026781 181.25067568661467 39.4719491239058C230.68957669765854 3.8225405451335064 369.9976812267788 122.40315973315154 454.25538710178284 167.96912339288485C538.513092976787 213.5350870526181 536.5375396483562 156.23258821304643 585.6876638866336 258.18857469062505C634.8377881249112 360.14456116820384 730.9288337983893 551.7644728999396 690.1759834455149 657.3578584852617 "></path><path d="M562.4766944567127 275.9150104836915C605.4830531652054 365.1264986515729 689.5627181294988 532.7939214168417 653.9039740707339 625.1881338039985C618.2452300119687 717.5823461911552 497.75965511815843 726.2574157515558 391.3147229746412 719.4072299420449C284.86979083112385 712.557044132534 174.52760289665343 669.9544759418942 142.96829978185008 592.3072419183458C111.40899666704678 514.6600078947974 226.1579784402835 452.4857730468325 239.83006802358472 346.70050662901315C253.50215760688593 240.9152402111938 165.33529139703268 115.7311956192379 208.59432978169605 84.53796311281212C251.85336816635942 53.34473060638635 373.7479596293397 157.10277239590215 447.4734522699682 196.97299059816874C521.1989449105968 236.84320880043538 519.4703357482199 186.70352231581018 562.4766944567127 275.9150104836915C605.4830531652054 365.1264986515729 689.5627181294988 532.7939214168417 653.9039740707339 625.1881338039985 "></path><path d="M539.2657402855807 293.64144627675785C576.1283334642889 370.10843613494194 648.1966177193974 513.8233699337438 617.6319799547417 593.0184091227353C587.067342190086 672.2134483117268 483.79399228110583 679.6492222206415 392.5554790152337 673.777634383918C301.31696574936177 667.9060465471944 206.73794751981563 631.3895595266458 179.68711627855566 564.8347875064616C152.6362850372957 498.2800154862772 250.99255512864147 444.9878141880216 262.71148905718536 354.3147286870336C274.43042298572925 263.6416431860455 198.8588233772836 156.34103353579764 235.93799913556649 129.60397710171844C273.01717489384936 102.86692066763919 377.4982532906895 191.8023850586527 440.69153269694266 225.97685780345267C503.8848121031956 260.15133054825264 502.40314710687255 217.17445641857387 539.2657402855807 293.64144627675785C576.1283334642889 370.10843613494194 648.1966177193974 513.8233699337438 617.6319799547417 593.0184091227353 "></path><path d="M516.0547861144487 311.3678515522462C546.7736137633722 375.09034310073275 606.830517309296 494.8527879330677 581.3599858387496 560.8486539238941C555.8894543682031 626.8445199147203 469.828329444053 633.0409981721492 393.7962350558263 628.1480083082129C317.76414066759963 623.2550184442765 238.9482921429779 592.8246125938194 216.40593277526125 537.3623025769991C193.86357340754455 481.89999256017893 275.8271318169994 437.4898248116326 285.59291009078595 361.9289202274758C295.3586883645726 286.36801564331915 232.3823553575345 196.9508409347793 263.2816684894369 174.66996057304658C294.1809816213393 152.3890802113139 381.2485469520394 226.5019672038252 433.909613123917 254.9806944911585C486.57067929579455 283.4594217784918 485.3359584655253 247.6453600037595 516.0547861144487 311.3678515522462C546.7736137633722 375.09034310073275 606.830517309296 494.8527879330677 581.3599858387496 560.8486539238941 "></path><path d="M492.84384720210585 329.09427208652346C517.4189093212447 380.07226532531286 565.4644321579838 475.88222119118075 545.0880069815465 528.6789139838418C524.7115818051094 581.4756067765028 455.8626818657892 586.4327893824459 395.03700635520795 582.5183974912968C334.21133084462656 578.6040056001477 271.15865202492915 554.2596809197821 253.12476453075584 509.88983290632586C235.09087703658253 465.5199848928696 300.66172376414636 429.9918506940327 308.47434638317566 369.5431270267073C316.28696900220496 309.0944033593819 265.9059025965745 237.56066359255 290.6253531020964 219.73595930316384C315.34480360761836 201.9112550137777 384.99885587217847 261.20156460778674 427.1277088096805 283.98454643765336C469.25656174718256 306.76752826752 468.26878508296716 278.1162788477342 492.84384720210585 329.09427208652346C517.4189093212447 380.07226532531286 565.4644321579838 475.88222119118075 545.0880069815465 528.6789139838418 "></path><path d="M469.6328625133958 346.8207231383789C488.06415910274995 385.05421806747097 524.0983012303042 456.9116849668719 508.8159823479764 496.5092045613676C493.5336634656485 536.1067241558634 441.8969885111584 539.8246111103208 396.2777318782223 536.888817191959C350.65847524528635 533.9530232735972 303.3689661305133 515.6947797633229 289.8435505098833 482.4173937532307C276.3181348892533 449.14000774313854 325.4962699349262 422.4939070940108 331.3557368991981 377.1573643435168C337.2152038634701 331.82082159302274 299.42940405924725 278.17051676789885 317.9689919383887 264.8019885508592C336.5085798175302 251.4334603338196 388.7491190159502 295.90119252932635 420.3457587190768 312.98842890172637C451.94239842220327 330.0756652741263 451.2015659240417 308.58722820928693 469.6328625133958 346.8207231383789C488.06415910274995 385.05421806747097 524.0983012303042 456.9116849668719 508.8159823479764 496.5092045613676 "></path><path d="M446.42190834226386 364.5471284138672C458.70943940183327 390.0361250332619 482.7322008202028 437.94110296619584 472.5439882319842 464.33944936252635C462.35577564376564 490.7377957588569 427.93132567410555 493.2163870618284 397.5184879188149 491.2591911162539C367.1056501635242 489.30199517067933 335.57931075367554 477.1298328304965 326.5623670065889 454.9449088237684C317.54542325950223 432.7599848170403 350.3308466232841 414.9959177176218 354.23715793279877 384.7715558839591C358.1434692423134 354.5471940502964 332.9529360394982 318.78032416688046 345.3126612922591 309.8679720221874C357.6723865450201 300.9556198774943 392.49941267730014 330.60077467449884 413.5638391460512 341.9922655894321C434.6282656148022 353.38375650436546 434.1343772826945 339.05813179447256 446.42190834226386 364.5471284138672C458.70943940183327 390.0361250332619 482.7322008202028 437.94110296619584 472.5439882319842 464.33944936252635 "></path><path d="M423.210969429921 382.2735642069336C429.3547349597057 395.01806251663095 441.3661156688905 418.9705514830979 436.2720093747812 432.1697246812632C431.17790308067185 445.36889787942846 413.96567809584184 446.6081935309142 398.7592592181965 445.62959555812694C383.5528403405512 444.65099758533967 367.7896706356268 438.56491641524826 363.2811987620835 427.4724544118842C358.77272688854015 416.37999240852014 375.16543857043115 407.4979588588109 377.1185942251884 392.38577794197954C379.07174987994574 377.2735970251482 366.4764832785381 359.39016208344026 372.6563459049186 354.9339860110937C378.8362085312991 350.47780993874716 396.24972159743913 365.3003873372494 406.7819348318146 370.99613279471606C417.31414806619017 376.69187825218273 417.0672039001363 369.52906589723625 423.210969429921 382.2735642069336C429.3547349597057 395.01806251663095 441.3661156688905 418.9705514830979 436.2720093747812 432.1697246812632 "></path></g></svg>